<svg width="119.000000" height="28.000000" viewBox="0 0 119 28" fill="none" xmlns="http://www.w3.org/2000/svg" xmlns:xlink="http://www.w3.org/1999/xlink">
	<desc>
			Created with Pixso.
	</desc>
	<defs/>
	<circle id="Oval" cx="7.000000" cy="21.000000" r="7.000000" fill="#4D96A9" fill-opacity="1.000000"/>
	<circle id="Oval" cx="7.000000" cy="21.000000" r="7.000000" stroke="#979797" stroke-opacity="0" stroke-width="0.000000"/>
	<circle id="Oval Copy" cx="21.000000" cy="7.000000" r="7.000000" fill="#855FB1" fill-opacity="1.000000"/>
	<circle id="Oval Copy" cx="21.000000" cy="7.000000" r="7.000000" stroke="#979797" stroke-opacity="0" stroke-width="0.000000"/>
	<path id="meet" d="M116.072 25.7571C115.355 25.8542 114.754 25.9028 114.27 25.9028C112.268 25.9028 110.755 25.4438 109.733 24.5261Q109.528 24.342 109.351 24.1345Q108.2 22.7898 108.2 20.4604L108.2 12.9126L104.817 12.9126L104.817 8.53955L108.2 8.53955L108.2 4.13379L113.321 3L113.321 8.53955L118 8.53955L118 12.9126L113.321 12.9126L113.321 19.4238C113.321 20.1799 113.485 20.7144 113.812 21.0273C114.138 21.3406 114.712 21.4971 115.534 21.4971C115.935 21.4971 116.314 21.4702 116.672 21.4163C117.031 21.3623 117.42 21.2705 117.842 21.1409L117.842 25.3845C117.378 25.5356 116.788 25.6599 116.072 25.7571ZM44.1211 25.676L44.1211 13.9492C44.4375 13.5391 44.8218 13.2312 45.2749 13.0261Q45.9546 12.7183 46.8081 12.7183Q47.5708 12.7183 48.1455 13.0464Q48.5005 13.249 48.7842 13.5767Q48.8667 13.6721 48.9399 13.7742Q49.5269 14.5898 49.5269 15.8281L49.5269 25.676L54.6484 25.676L54.6484 15.1155C54.6484 14.9211 54.6431 14.7322 54.6323 14.5486C54.6221 14.365 54.606 14.1868 54.585 14.0142Q54.9175 13.6094 55.332 13.3237L55.3325 13.3235L55.3325 13.3235L55.334 13.3228Q55.5488 13.1746 55.7861 13.0583C56.25 12.8318 56.7661 12.7183 57.3354 12.7183C58.1572 12.7183 58.8159 13.0044 59.311 13.5767Q59.3936 13.6721 59.4668 13.7742L59.4673 13.7742Q60.0542 14.5901 60.0542 15.8281L60.0542 25.676L65.1753 25.676L65.1753 15.1155C65.1753 13.1069 64.5693 11.4548 63.3574 10.1592Q62.6392 9.39111 61.7607 8.92651L61.7603 8.92651L61.7603 8.92627Q60.415 8.21558 58.6948 8.21558C57.5986 8.21558 56.5874 8.42065 55.6597 8.83105Q54.9565 9.14233 54.3501 9.58618Q53.7573 10.0198 53.2573 10.5803Q52.9331 10.1619 52.5469 9.81104L52.5469 9.81104L52.5469 9.81104L52.5469 9.81079L52.5469 9.81079L52.5469 9.81079L52.5469 9.81079Q51.917 9.23877 51.1235 8.84717Q50.9741 8.77368 50.8218 8.7085L50.8213 8.7085L50.8208 8.70825Q49.6621 8.21558 48.2939 8.21558Q47.207 8.21558 46.2153 8.52344Q46.1401 8.54663 46.0654 8.57178Q45.6802 8.70142 45.3184 8.87793L45.3184 8.87817L45.3184 8.87817Q44.6846 9.18726 44.1211 9.64087L44.1211 8.53955L39 8.53955L39 25.676L44.1211 25.676ZM80.3018 25.3845C79.1953 25.7949 77.9468 26 76.5557 26C75.2915 26 74.1006 25.7732 72.9834 25.3198C71.8667 24.8662 70.9023 24.24 70.0908 23.4409Q69.8423 23.196 69.6147 22.9329L69.6143 22.9324L69.6143 22.9319Q68.7285 21.9075 68.1626 20.6064Q67.9541 20.1262 67.8066 19.6282L67.8062 19.6279L67.8062 19.6277Q67.4512 18.4285 67.4512 17.124Q67.4512 15.7061 67.8521 14.4124L67.8521 14.4121L67.8521 14.4121L67.8521 14.4119L67.8525 14.4119L67.8525 14.4116Q67.9736 14.0208 68.1309 13.6416C68.584 12.551 69.2007 11.6062 69.9805 10.8071Q70.2969 10.4824 70.645 10.196Q71.5825 9.42432 72.7466 8.92822C73.8105 8.47461 74.9541 8.2478 76.1763 8.2478Q77.8003 8.2478 79.2012 8.80713L79.2017 8.80713L79.2017 8.80713L79.2026 8.80762Q79.3828 8.87939 79.5591 8.96045C80.5918 9.43579 81.4819 10.0835 82.2305 10.9043C82.9785 11.7249 83.5635 12.7129 83.9849 13.8684Q84.6172 15.6013 84.6172 17.6099L84.6172 18.9055L72.6992 18.9055C73.0361 19.7046 73.563 20.3579 74.2798 20.8655C74.9961 21.373 75.8394 21.6267 76.8086 21.6267C77.5044 21.6267 78.1362 21.5134 78.7056 21.2866C79.2744 21.0598 79.7593 20.7412 80.1597 20.3311L83.542 23.4084C82.4883 24.3154 81.4082 24.9741 80.3018 25.3845ZM99.1113 25.3845C98.0049 25.7949 96.7563 26 95.3652 26C94.1011 26 92.9102 25.7732 91.793 25.3198C90.6763 24.8662 89.7119 24.24 88.9004 23.4409C88.0894 22.6418 87.4463 21.697 86.9722 20.6064Q86.7637 20.1262 86.6162 19.6282L86.6157 19.6272Q86.2607 18.4282 86.2607 17.124C86.2607 15.8931 86.4873 14.7322 86.9404 13.6416C87.3936 12.551 88.0103 11.6062 88.79 10.8071Q89.1064 10.4824 89.4546 10.196Q90.3921 9.42432 91.5562 8.92822C92.6201 8.47461 93.7637 8.2478 94.9858 8.2478Q96.6104 8.2478 98.0112 8.80713L98.0112 8.80713Q98.1919 8.87915 98.3687 8.96045Q99.3706 9.42163 100.194 10.0999L100.194 10.0999Q100.644 10.4697 101.04 10.9043C101.788 11.7249 102.373 12.7129 102.794 13.8684C103.216 15.0237 103.427 16.271 103.427 17.6099L103.427 18.9055L91.5088 18.9055C91.8457 19.7046 92.3726 20.3579 93.0894 20.8655C93.8057 21.373 94.6489 21.6267 95.6182 21.6267C96.314 21.6267 96.9458 21.5134 97.5151 21.2866C98.084 21.0598 98.5688 20.7412 98.9692 20.3311L102.352 23.4084C101.298 24.3154 100.218 24.9741 99.1113 25.3845ZM79.5908 15.2451L72.604 15.2451C72.8569 14.3811 73.2891 13.7117 73.9004 13.2366C74.5117 12.7615 75.2388 12.5239 76.0815 12.5239C76.9033 12.5239 77.6255 12.7722 78.2471 13.269Q78.4756 13.4514 78.6724 13.6628L78.6724 13.6631Q79.2803 14.3154 79.5908 15.2451ZM98.4004 15.2451L91.4136 15.2451C91.6665 14.3811 92.0986 13.7117 92.71 13.2366C93.3213 12.7615 94.0483 12.5239 94.8911 12.5239C95.7129 12.5239 96.4351 12.7722 97.0566 13.269Q97.2852 13.4514 97.4819 13.6628Q98.0898 14.3154 98.4004 15.2451Z" clip-rule="evenodd" fill="#28283D" fill-opacity="1.000000" fill-rule="evenodd"/>
</svg>
